<svg width="512" height="512" viewBox="0 0 512 512" fill="none" xmlns="http://www.w3.org/2000/svg">
  <rect width="512" height="512" rx="104" fill="#2563EB"/>
  <path d="M138 184C138 159.699 157.699 140 182 140H330C354.301 140 374 159.699 374 184V328C374 352.301 354.301 372 330 372H182C157.699 372 138 352.301 138 328V184Z" fill="white" fill-opacity="0.14"/>
  <path d="M193.5 295.5C181.833 283.833 176 270.667 176 256C176 241.333 181.833 228.167 193.5 216.5C205.167 204.833 219.333 199 236 199C249.733 199 261.867 202.533 272.4 209.6C282.933 216.667 290.4 226.4 294.8 238.8H262.4C259.2 234.267 255.267 230.8 250.6 228.4C245.933 226 240.8 224.8 235.2 224.8C226.267 224.8 218.8 227.8 212.8 233.8C206.8 239.8 203.8 247.2 203.8 256C203.8 264.8 206.8 272.2 212.8 278.2C218.8 284.2 226.267 287.2 235.2 287.2C240.8 287.2 245.933 286 250.6 283.6C255.267 281.2 259.2 277.733 262.4 273.2H294.8C290.4 285.6 282.933 295.333 272.4 302.4C261.867 309.467 249.733 313 236 313C219.333 313 205.167 307.167 193.5 295.5Z" fill="white"/>
  <path d="M287 202H316.2L338.2 279.2L360.2 202H390L355.6 310H320.8L287 202Z" fill="white"/>
  <text x="256" y="405" text-anchor="middle" font-family="Arial, Helvetica, sans-serif" font-size="42" font-weight="700" fill="white">crmvgon</text>
</svg>
